stateDiagram-v2
    [*] --> Start
    state "step-1" as step_1
    state "step-2" as step_2
    state "step-3" as step_3
    state "step-4" as step_4
    state "step-5" as step_5
    state "step-6" as step_6
    state "step-7" as step_7
    state "step-8" as step_8
    state "step-9" as step_9
    state "step-10" as step_10
    state "step-11" as step_11
    state "step-12" as step_12
    step_1 --> step_2
    step_2 --> step_3
    step_3 --> step_4
    step_4 --> step_5
    step_5 --> step_6
    step_6 --> step_7
    step_7 --> step_8
    step_8 --> step_9
    step_9 --> step_10
    step_10 --> step_11
    step_11 --> step_12
    step_12 --> [*]